:SAMPLES-PER-SECOND 30
:FULLY-SPECIFIED
:DEGREES
297
root  -54.0098 40.7486 1.37031 -178.318 -8.04506 176.146
RightUpLeg  -7.78258 5.53139 -11.5243
RightLeg  31.4098 -12.0399 -8.04522
RightFoot  -8.97818 -0.0254934 -1.86591
RightToes  0.000482159 0.542163 -0.142577
Spine  10.199 -0.491707 0.681634
Spine1  3.32975 -0.0964751 -1.71735
HEad  -15.2997 2.36939 0.475984
LeftShoulder1  7.85196 -11.7009 -44.9896
LeftArm  -7.1378 19.5621 -28.7746
LeftForeArm  28.6039 -29.3558 -4.79774
LeftHand  -0.25398 0.0180481 5.50724
RightShoulder  4.48946 8.17397 32.5024
RightArm  -14.3645 -21.9223 36.3122
RightForeArm  -15.5622 22.1151 5.619
RightHand  -2.95803 7.88694 -25.8379
LeftUpLeg  -11.4244 7.52885 1.65297
LeftLeg  8.83247 14.3997 -3.16675
LeftFoot  1.50604 0.0518803 -0.536032
LeftToes  1.06246e-005 4.65855e-005 -8.18503e-006
298
root  -55.1021 40.9464 1.37804 -178.13 -1.59441 176.174
RightUpLeg  -9.32295 -0.764194 -9.90706
RightLeg  34.2313 -13.0843 -9.63483
RightFoot  -8.53619 -0.0363908 -0.878734
RightToes  0.000482159 0.542163 -0.142577
Spine  10.3603 -0.268447 1.22992
Spine1  2.73374 0.64588 -3.81538
HEad  -14.637 0.491359 1.47791
LeftShoulder1  7.47735 -11.4497 -43.5024
LeftArm  -8.63019 20.577 -28.6153
LeftForeArm  26.9721 -28.8618 -4.77384
LeftHand  -0.25398 0.0180481 5.50724
RightShoulder  4.54443 8.0643 33.3398
RightArm  -11.1764 -22.0568 35.8489
RightForeArm  -13.1 21.4589 5.52583
RightHand  -2.27646 6.0041 -23.242
LeftUpLeg  -9.36529 6.39319 1.4527
LeftLeg  6.01517 22.1175 -4.62159
LeftFoot  0.86199 -0.0587397 0.501132
LeftToes  1.06246e-005 4.65855e-005 -8.18503e-006
299
root  -56.1522 41.0615 1.32933 -178.146 4.94691 176.079
RightUpLeg  -10.0948 -6.36368 -8.08868
RightLeg  37.2286 -12.6872 -10.4021
RightFoot  -8.2541 -0.0839799 1.03647
RightToes  0.000482159 0.542163 -0.142577
Spine  9.96334 0.0593912 0.849811
Spine1  2.90578 1.08333 -4.28129
HEad  -14.4779 -0.995744 1.61763
LeftShoulder1  7.446 -11.3093 -43.7383
LeftArm  -10.19 21.7669 -27.6317
LeftForeArm  25.4946 -28.3542 -4.73921
LeftHand  -0.25398 0.0180481 5.50724
RightShoulder  4.41892 7.93982 32.6711
RightArm  -8.23291 -21.9733 36.3728
RightForeArm  -7.16498 21.5602 5.26418
RightHand  -1.64722 4.12071 -20.263
LeftUpLeg  -7.41614 6.2139 0.674888
LeftLeg  3.25711 28.7646 -6.11561
LeftFoot  0.00385677 -0.130902 1.31706
LeftToes  1.06246e-005 4.65855e-005 -8.18503e-006
300
root  -57.165 41.1167 1.25114 -178.188 11.216 175.904
RightUpLeg  -10.2361 -12.0495 -6.42026
RightLeg  40.0669 -12.3643 -11.1888
RightFoot  -7.73991 -0.10611 1.7159
RightToes  0.000482159 0.542163 -0.142577
Spine  9.36669 0.212265 0.587087
Spine1  3.13117 1.33232 -4.64998
HEad  -14.5933 -2.38104 1.54771
LeftShoulder1  7.60004 -11.3597 -44.531
LeftArm  -11.1845 23.2416 -26.3656
LeftForeArm  24.4849 -27.7078 -4.64884
LeftHand  -0.25398 0.0180481 5.50724
RightShoulder  4.28343 7.83086 31.8482
RightArm  -6.56908 -22.0718 37.1373
RightForeArm  -0.434891 22.4803 4.94849
RightHand  -1.31366 2.99354 -18.3624
LeftUpLeg  -6.26036 5.77978 -0.528781
LeftLeg  1.03302 35.0696 -7.28103
LeftFoot  -0.500092 -0.243481 2.59593
LeftToes  1.06246e-005 4.65855e-005 -8.18503e-006
301
root  -58.1199 41.1314 1.16952 -178.202 17.0724 175.718
RightUpLeg  -9.64992 -18.0253 -5.09064
RightLeg  42.2115 -12.2511 -11.9241
RightFoot  -7.24673 -0.119901 1.97024
RightToes  0.000482159 0.542163 -0.142577
Spine  8.93125 0.121177 0.600102
Spine1  2.80539 1.4278 -5.48708
HEad  -14.7272 -3.48264 1.94621
LeftShoulder1  7.66428 -11.4335 -44.6931
LeftArm  -11.2216 25.0279 -25.5066
LeftForeArm  23.9263 -26.7918 -4.47598
LeftHand  -0.25398 0.0180481 5.50724
RightShoulder  4.33635 7.86308 32.2057
RightArm  -5.52523 -22.3326 37.0228
RightForeArm  3.79005 23.7848 4.88474
RightHand  -1.21237 2.64897 -17.6593
LeftUpLeg  -5.85955 5.3202 -1.713
LeftLeg  -0.636938 41.1037 -8.44594
LeftFoot  -1.07853 -0.359447 4.07764
LeftToes  1.06246e-005 4.65855e-005 -8.18503e-006
